<svg xmlns="http://www.w3.org/2000/svg" viewBox="0 0 79.72 20.76"><defs><style>.cls-1{fill:#95d600;}.cls-2{fill:#fff;}</style></defs><title>CTA_FindOutHow_Black</title><g id="Layer_2" data-name="Layer 2"><g id="Layer_1-2" data-name="Layer 1"><rect width="79.72" height="20.76"/><path class="cls-1" d="M70.92,13.71a.54.54,0,0,1,.17-.4l3-3-3-2.94a.53.53,0,0,1,0-.78l.59-.6a.55.55,0,0,1,.4-.17.53.53,0,0,1,.39.17L76.4,10a.55.55,0,0,1,0,.8l-3.94,3.93a.55.55,0,0,1-.79,0l-.59-.59A.54.54,0,0,1,70.92,13.71Z"/><path class="cls-2" d="M7,5.92h4V7.18H8.37V10h2.32V11.3H8.37v4H7Z"/><path class="cls-2" d="M11.95,5.92h1.35v9.4H11.95Z"/><path class="cls-2" d="M14.55,5.92h1.29l2,5.66h0V5.92h1.35v9.4H18L15.92,9.67h0v5.65H14.55Z"/><path class="cls-2" d="M20.47,5.92h2a2.19,2.19,0,0,1,2.36,2.43v4.4a2.25,2.25,0,0,1-2.48,2.57H20.47ZM21.81,14h.62c.75,0,1-.37,1-1.17V8.35c0-.74-.25-1.16-1-1.16h-.62Z"/><path class="cls-2" d="M28.47,8.14a2.26,2.26,0,1,1,4.51,0v5a2.26,2.26,0,1,1-4.51,0Zm1.35,5a.91.91,0,1,0,1.82,0v-5a.91.91,0,1,0-1.82,0Z"/><path class="cls-2" d="M38.54,13.2a2.18,2.18,0,1,1-4.36,0V5.92h1.35v7.15c0,.66.36,1,.83,1s.83-.32.83-1V5.92h1.35Z"/><path class="cls-2" d="M40.69,7.18H39.13V5.92h4.46V7.18H42v8.13H40.69Z"/><path class="cls-2" d="M46.65,5.92H48v4h1.66v-4H51v9.4H49.66V11.13H48v4.18H46.65Z"/><path class="cls-2" d="M52.2,8.14a2.26,2.26,0,1,1,4.51,0v5a2.26,2.26,0,1,1-4.51,0Zm1.35,5a.91.91,0,1,0,1.82,0v-5a.91.91,0,1,0-1.82,0Z"/><path class="cls-2" d="M63.33,15.32H62.06l-1-6.1h0l-1,6.1H58.72l-1.4-9.4h1.43l.67,6h0l1.06-6h1L62.63,12h0l.65-6.11h1.43Z"/></g></g></svg>