<svg xmlns="http://www.w3.org/2000/svg" viewBox="0 0 125.22 62.61"><defs><style>.cls-1{fill:none;}.cls-2{fill:#96d600;}</style></defs><title>Lines_1</title><g id="Layer_2" data-name="Layer 2"><g id="Layer_1-2" data-name="Layer 1"><polygon class="cls-1" points="113.93 62.61 119.58 56.97 115.35 52.74 105.47 62.61 113.93 62.61"/><polygon class="cls-1" points="49.27 62.61 87.25 24.64 83.02 20.41 40.81 62.61 49.27 62.61"/><polygon class="cls-1" points="65.44 62.61 95.33 32.72 91.1 28.49 56.98 62.61 65.44 62.61"/><polygon class="cls-1" points="97.77 62.61 111.5 48.88 107.27 44.66 89.31 62.61 97.77 62.61"/><polygon class="cls-1" points="125.22 62.61 123.43 60.82 121.64 62.61 125.22 62.61"/><polygon class="cls-1" points="81.6 62.61 103.41 40.8 99.18 36.57 73.14 62.61 81.6 62.61"/><polygon class="cls-1" points="62.61 0 0 62.61 0.77 62.61 63 0.39 62.61 0"/><polygon class="cls-1" points="33.1 62.61 79.16 16.55 74.93 12.32 24.64 62.61 33.1 62.61"/><polygon class="cls-1" points="16.94 62.61 71.08 8.47 66.85 4.24 8.48 62.61 16.94 62.61"/><polygon class="cls-2" points="66.85 4.24 63 0.39 0.77 62.61 8.48 62.61 66.85 4.24"/><polygon class="cls-2" points="24.64 62.61 74.93 12.32 71.08 8.47 16.94 62.61 24.64 62.61"/><polygon class="cls-2" points="40.81 62.61 83.02 20.41 79.16 16.55 33.1 62.61 40.81 62.61"/><polygon class="cls-2" points="56.98 62.61 91.1 28.49 87.25 24.64 49.27 62.61 56.98 62.61"/><polygon class="cls-2" points="73.14 62.61 99.18 36.57 95.33 32.72 65.44 62.61 73.14 62.61"/><polygon class="cls-2" points="89.31 62.61 107.27 44.66 103.41 40.8 81.6 62.61 89.31 62.61"/><polygon class="cls-2" points="105.47 62.61 115.35 52.74 111.5 48.88 97.77 62.61 105.47 62.61"/><polygon class="cls-2" points="121.64 62.61 123.43 60.82 119.58 56.97 113.93 62.61 121.64 62.61"/></g></g></svg>