<svg xmlns="http://www.w3.org/2000/svg" viewBox="0 0 52.1 21.7"><defs><style>.cls-1{fill:#96d600;}</style></defs><title>Text_Waves</title><g id="Layer_2" data-name="Layer 2"><g id="Layer_1-2" data-name="Layer 1"><rect class="cls-1" width="52.1" height="21.7"/><path d="M12.3,19.26H10L8.19,8.34h0L6.32,19.26H4.05L1.55,2.43H4.1l1.2,10.69h0L7.25,2.43H9.09l2,10.95h0L12.26,2.43h2.55Z"/><path d="M18.29,2.43h2l3.76,16.83H21.65l-.71-3.62H17.65l-.71,3.62H14.53Zm1,4.84h0l-1.18,6.1h2.41Z"/><path d="M29.1,19.26H27L23.55,2.43H26.1L28,14.18h0L30,2.43h2.55Z"/><path d="M34,2.43h7.19V4.7H36.41V9.64h4.16v2.27H36.41v4.94h4.78v2.41H34Z"/><path d="M50.55,7.28H48.14V6.74c0-1.11-.47-2-1.7-2s-1.63,1.06-1.63,2.18c0,1.3.12,1.75,1.37,2.24L48,9.86c2.13.8,2.53,2.15,2.53,4.61,0,2.84-1,4.94-4.16,4.94a4,4,0,0,1-4.11-4v-.9h2.41v.76A1.59,1.59,0,0,0,46.39,17c1.63,0,1.75-1,1.75-2.51,0-1.8-.21-2.08-1.39-2.55L45,11.23C42.94,10.38,42.4,9,42.4,6.9c0-2.55,1.37-4.61,4.14-4.61a3.94,3.94,0,0,1,4,3.81Z"/></g></g></svg>