<svg xmlns="http://www.w3.org/2000/svg" viewBox="0 0 51.62 21.7"><defs><style>.cls-1{fill:#fff;}</style></defs><title>Text_Make_1</title><g id="Layer_2" data-name="Layer 2"><g id="Layer_1-2" data-name="Layer 1"><path class="cls-1" d="M0,0H3L7,11.49H7L11,0h3V21.7H10.91V8.5h-.06L7.77,17.83H6.22l-3-9.33H3.11V21.7H0Z"/><path class="cls-1" d="M20.4,0H23l4.85,21.7H24.72L23.81,17H19.57l-.91,4.66H15.55Zm1.31,6.25h-.06l-1.52,7.86h3.11Z"/><path class="cls-1" d="M29.36,0h3.11V9.9h.06L37.07,0h3.11L35.95,8.68l5,13H37.68l-3.54-9.63-1.68,3.14V21.7H29.36Z"/><path class="cls-1" d="M42.35,0h9.26V2.93H45.46V9.3h5.36v2.93H45.46v6.37h6.16V21.7H42.35Z"/></g></g></svg>